Coordinates
version=1
nRows=13
nColumns=34
inDegrees=yes

Units are S.I. units (second, meters, Newtons, ...)
If the header above contains a line with 'inDegrees', this indicates whether rotational values are in degrees (yes) or radians (no).

endheader
time	pelvis_tilt	pelvis_list	pelvis_rotation	pelvis_tx	pelvis_ty	pelvis_tz	hip_flexion_r	hip_adduction_r	hip_rotation_r	knee_angle_r	ankle_angle_r	subtalar_angle_r	mtp_angle_r	hip_flexion_l	hip_adduction_l	hip_rotation_l	knee_angle_l	ankle_angle_l	subtalar_angle_l	mtp_angle_l	lumbar_extension	lumbar_bending	lumbar_rotation	arm_flex_r	arm_add_r	arm_rot_r	elbow_flex_r	pro_sup_r	arm_flex_l	arm_add_l	arm_rot_l	elbow_flex_l	pro_sup_l
      8.80000000	      5.45279404	      6.84827182	     11.44363763	     -0.60555577	      0.48982720	      0.03278278	     86.47013093	      4.44715532	     11.54653119	     46.35059186	     -5.89855810	    -18.50882391	      0.00000000	     88.25984823	      1.32947714	     -4.03257963	     56.97733963	     30.72053257	    -10.64986813	      0.00000000	    -40.55678881	      2.22873938	     30.60666646	     92.18381447	    -44.05696799	     35.21587204	     44.24329687	     78.58948845	    143.82704730	      0.96826859	     74.92346643	     37.12195261	     65.60929007
      8.81666670	      5.20330042	      7.47162692	     12.60514454	     -0.61375129	      0.49550608	      0.03747738	     86.55284540	      3.75971431	     13.42481860	     46.52703635	    -10.89216917	    -20.88066448	      0.00000000	     88.44032227	      2.34418696	     -5.11533807	     56.94030365	     18.99574676	    -16.47498640	      0.00000000	    -43.83079814	      1.89416483	     31.32736742	    100.52759659	    -44.05420361	     40.54117922	     40.49937522	     76.15964471	    148.24944593	      0.56418864	     76.16127525	     38.32465339	     63.00658841
      8.83333330	      4.61434621	      7.83236342	     13.26969000	     -0.60020715	      0.50380530	      0.03258380	     86.91620122	      3.51408889	     14.29420676	     47.33810872	    -13.94642918	    -23.27529636	      0.00000000	     88.60968347	      2.92209723	     -5.27821594	     56.95988973	     13.73542206	    -16.96120390	      0.00000000	    -45.90158925	      1.64248159	     32.35746495	    105.47579539	    -44.56737204	     43.74566312	     38.38214859	     74.22997466	    150.32736663	      0.87355828	     74.66256441	     39.82173379	     60.98762698
      8.85000000	      3.51129388	      7.88905425	     13.75762420	     -0.60407506	      0.49641136	      0.02771170	     88.37722332	      3.21303913	     14.35985906	     48.71921774	    -13.75632678	    -23.04564270	      0.00000000	     89.55347377	      3.48872376	     -5.02365832	     56.84134570	     13.86121336	    -14.95410766	      0.00000000	    -46.83032203	      1.95991736	     34.39800883	    111.86867897	    -45.84555533	     52.83027574	     35.31030392	     69.62322031	    151.01365533	      1.27150433	     72.65225349	     41.62075018	     57.62897863
      8.86666670	      3.00378919	      8.62380525	     14.41617528	     -0.59567626	      0.50049617	      0.02792042	     88.56414483	      2.27828144	     14.77419630	     48.52213035	    -12.50312141	    -22.95624389	      0.00000000	     89.49667036	      4.51038929	     -5.45306741	     56.36074930	     14.73109729	    -16.64448892	      0.00000000	    -48.38104156	      1.48196645	     35.09298649	    115.54726021	    -46.78463940	     54.79411609	     34.06329288	     67.12606374	    152.10261428	      2.31687709	     70.23031530	     42.42154914	     56.68285415
      8.88333330	      0.78980050	      8.72642238	     14.57092343	     -0.58077690	      0.49293503	      0.02521156	     91.14463439	      1.89995287	     14.19897970	     49.32643581	    -14.08225489	    -25.12024336	      0.00000000	     91.42291495	      4.63349374	     -5.41267922	     56.72473018	     20.06698103	    -15.57807586	      0.00000000	    -47.28958925	      1.11814620	     36.62271589	    119.04914480	    -48.57500276	     58.45628951	     33.01161584	     65.21622574	    150.72192249	      3.48636499	     66.54307648	     44.47797160	     56.20032406
      8.90000000	     -0.50142222	      9.48443931	     14.56189274	     -0.58828909	      0.49057323	      0.02947123	     92.64314050	      1.40156823	     14.01256362	     49.25821546	    -15.61356435	    -24.76124045	      0.00000000	     92.82275641	      4.62378289	     -6.67705876	     57.65308307	     24.36640917	    -14.27244107	      0.00000000	    -48.57297619	      0.13098263	     36.88532944	    124.05393751	    -48.48150060	     63.05483676	     31.01421083	     63.55304429	    151.15793082	      4.30507612	     62.55713766	     45.36879853	     56.52499989
      8.91666670	     -2.23051613	      9.57921215	     14.19315617	     -0.58081757	      0.48013390	      0.02843487	     95.11200675	      1.45977876	     13.06345586	     49.76420437	    -16.02976930	    -24.84896050	      0.00000000	     95.29139350	      4.00692894	     -7.14639435	     59.14964410	     29.30778822	    -11.90410404	      0.00000000	    -48.52947928	     -0.36380381	     36.89171976	    125.96298291	    -48.34821601	     65.53511594	     30.75456915	     62.22827693	    151.12982098	      4.61778021	     60.60032029	     46.65534396	     57.24917126
      8.93333330	     -3.17417461	      9.85377420	     12.94772396	     -0.58625473	      0.47788625	      0.03285563	     96.62453738	      2.12280120	     11.69357955	     49.84691061	    -15.73824480	    -24.69286040	      0.00000000	     96.88456518	      2.56605822	     -7.60476265	     61.11981131	     35.33023213	     -9.49060657	      0.00000000	    -49.84530302	     -1.46999087	     36.02016924	    127.51880650	    -45.98676991	     66.90745595	     28.85869296	     61.38071896	    152.98002985	      4.93655177	     60.18361025	     45.77357501	     57.74555127
      8.95000000	     -4.23074461	     10.03803339	     10.93813622	     -0.56325479	      0.46248860	      0.02895234	     98.90761960	      3.51097191	      9.64402678	     51.16830932	    -12.79926438	    -22.83457951	      0.00000000	     99.53388236	      0.15804869	     -7.82879137	     64.55673392	     47.86804294	     -4.67287815	      0.00000000	    -49.84186516	     -2.78108742	     35.40433375	    126.00336401	    -44.59519370	     66.86781628	     28.94446844	     60.48400643	    153.23055769	      4.70252705	     59.59037250	     47.26552604	     58.04883606
      8.96666670	     -6.29781496	     10.02057118	      9.27147511	     -0.55528721	      0.45459785	      0.03309887	    101.96532149	      4.57324783	      7.84949983	     51.77869180	    -12.07751513	    -21.41764106	      0.00000000	    103.15750018	     -2.08292514	     -7.64858711	     66.99811806	     50.00000000	     -8.81130955	      0.00000000	    -49.04896272	     -3.95804301	     34.60141651	    124.82696441	    -43.34900661	     65.75599633	     29.35059660	     60.20291085	    152.84935845	      3.80226689	     57.07705505	     50.62761292	     58.36092625
      8.98333330	     -7.54657552	      9.73557618	      8.36113310	     -0.55503225	      0.45391902	      0.03479680	    103.72520048	      5.17008682	      6.82549221	     52.94097274	    -12.01789020	    -20.60696420	      0.00000000	    105.30424234	     -3.27410438	     -7.96228618	     68.07379498	     50.00000000	    -15.72228494	      0.00000000	    -49.48708376	     -4.19125058	     32.91060782	    122.92247296	    -41.79051653	     63.50851894	     29.55920927	     60.21962816	    152.63073026	      2.73093270	     55.13551630	     54.10590974	     58.93887105
      9.00000000	     -7.61570532	      8.80323712	      8.35004617	     -0.56319025	      0.43901469	      0.04661425	    104.91338902	      5.52818170	      5.75777372	     54.09903501	    -11.73775466	    -21.09080990	      0.00000000	    106.43842673	     -3.72744722	     -7.13946486	     68.53655623	     50.00000000	    -21.79393650	      0.00000000	    -50.92799802	     -3.34545001	     29.90627433	    119.03141055	    -38.27459136	     57.27694698	     29.71463933	     60.94297340	    153.70315381	      1.91821735	     56.11491459	     54.73778956	     59.78762982
